<svg width="268" height="79" viewBox="0 0 268 79" fill="none" xmlns="http://www.w3.org/2000/svg">
<g clip-path="url(#clip0_2234_665)">
<g clip-path="url(#clip1_2234_665)">
<path d="M66.0939 3.39209L66.0083 5.53246L66.4364 5.61807L66.4792 5.53246C67.0357 4.37666 67.635 3.99139 68.962 3.99139H69.3045V12.3816C69.3045 13.4946 69.176 13.8371 68.7908 13.9655L68.7052 14.0083V14.4792H71.9157V14.0083H71.7873C71.402 13.8799 71.2736 13.5374 71.2736 12.4244V3.99139H71.5733C72.9003 3.99139 73.5424 4.37666 74.0561 5.53246L74.0989 5.61807L74.527 5.53246L74.4413 3.39209H66.0939Z" fill="#B22159"/>
<path d="M85.5285 3.39209V3.86297L85.6141 3.90578C85.9993 4.0342 86.1278 4.37666 86.1278 5.48965V8.31493H81.0765V5.48965C81.0765 4.37666 81.2049 4.0342 81.5902 3.90578L81.6758 3.86297V3.39209H78.5081V3.86297L78.5937 3.90578C78.9789 4.0342 79.1074 4.37666 79.1074 5.48965V12.3816C79.1074 13.4946 78.9789 13.8371 78.5937 13.9655L78.5081 14.0083V14.4792H81.6758V14.0083H81.633C81.2477 13.8799 81.1193 13.5374 81.1193 12.4244V8.95704H86.1706V12.4244C86.1706 13.5374 86.0421 13.8799 85.6569 14.0083L85.5713 14.0511V14.522H88.739V14.0511L88.6534 14.0083C88.2681 13.8799 88.1397 13.5374 88.1397 12.4244V5.53246C88.1397 4.41947 88.2681 4.07701 88.6534 3.94859L88.739 3.90578V3.39209H85.5285Z" fill="#B22159"/>
<path d="M93.2336 3.39209V3.86297L93.3193 3.90578C93.7045 4.0342 93.8329 4.37666 93.8329 5.48965V12.3816C93.8329 13.4946 93.7045 13.8371 93.3193 13.9655L93.2336 14.0083V14.4792H101.324L101.453 11.9536L100.982 11.8679L100.939 11.9964C100.425 13.3662 99.5263 13.9227 97.8568 13.9227H96.3586C95.9305 13.9227 95.7593 13.7087 95.7593 13.3234V8.82862H97.0863C98.927 8.82862 99.3979 9.17108 99.6119 9.89881L99.6547 10.0272H100.126V7.11633H99.6547L99.6119 7.24475C99.3979 7.92967 98.927 8.31493 97.0863 8.31493H95.7593V3.99139H97.4288C99.1839 3.99139 100.04 4.50508 100.597 5.87492L100.639 6.00334L101.11 5.87492L100.939 3.4349H93.2336V3.39209Z" fill="#B22159"/>
<path d="M114.338 7.9715C114.252 6.64448 114.552 5.53148 115.194 4.84657C115.708 4.29007 116.435 3.99042 117.291 3.99042C119.988 3.99042 121.658 7.20097 121.872 10.2403C121.957 11.4389 121.658 12.4235 121.101 13.0656C120.588 13.6221 119.903 13.8789 118.961 13.8789C116.35 13.8789 114.509 10.7968 114.338 7.9715ZM112.411 8.91326C112.411 12.8515 115.365 14.6494 118.105 14.6494C120.93 14.6494 123.755 12.7231 123.755 8.99888C123.755 5.23183 120.887 3.2627 118.105 3.2627C114.851 3.3055 112.411 5.70271 112.411 8.91326Z" fill="#B22159"/>
<path d="M130.904 3.99139C131.075 3.99139 131.247 3.94859 131.418 3.94859C133.216 3.94859 133.986 5.19 133.986 6.3886C133.986 7.15914 133.687 8.40055 131.717 8.40055H130.904V3.99139ZM128.336 3.39209V3.86297L128.421 3.90578C128.807 4.0342 128.935 4.37666 128.935 5.48965V12.3816C128.935 13.4946 128.807 13.8371 128.421 13.9655L128.336 14.0083V14.4792H131.503V14.0083L131.418 13.9655C131.033 13.8371 130.904 13.4946 130.904 12.3816V8.95704H131.675C132.745 8.95704 132.916 9.42792 133.558 11.0118C133.644 11.2686 133.772 11.5683 133.901 11.8679L133.943 11.9964C134.671 13.7515 135.014 14.6076 136.341 14.6076C136.598 14.6076 137.111 14.6076 137.496 14.4792L137.625 14.4364V13.9227L137.454 13.9655C137.368 13.9655 137.325 13.9655 137.24 13.9655C136.769 13.9655 136.64 13.6659 135.827 11.6539C135.142 9.8988 134.757 9.08547 133.601 8.74301C135.099 8.35774 135.955 7.37317 135.955 6.00334C135.955 4.24824 134.586 3.39209 131.76 3.39209H128.336Z" fill="#B22159"/>
<path d="M141.263 3.39209V3.86297L141.349 3.90578C141.734 4.0342 141.863 4.37666 141.863 5.48965V12.3816C141.863 13.4946 141.734 13.8371 141.349 13.9655L141.263 14.0083V14.4792H144.431V14.0083L144.346 13.9655C143.96 13.8371 143.832 13.4946 143.832 12.3816V5.53246C143.832 4.41947 143.96 4.07701 144.346 3.94859L144.431 3.90578V3.39209H141.263Z" fill="#B22159"/>
<path d="M149.097 8.91366C149.097 12.4239 151.452 14.6498 155.048 14.6498C156.417 14.6498 158.344 13.9649 159.5 12.4667L159.542 12.4239V9.38454H156.846V9.85542L156.974 9.89823C157.53 10.0695 157.659 10.3691 157.659 11.5677V12.9376C157.316 13.5797 156.546 14.0077 155.561 14.0077C154.577 14.0077 153.635 13.5797 152.864 12.8091C151.709 11.6533 151.024 9.76981 151.024 7.92909C151.067 5.44627 152.351 3.94801 154.491 3.94801C156.075 3.94801 157.573 4.97539 158.13 6.38803L158.173 6.51645L158.601 6.38803L158.515 4.16205L158.429 4.11924C157.573 3.56275 155.904 3.34871 155.005 3.34871C151.666 3.3059 149.097 5.70311 149.097 8.91366Z" fill="#B22159"/>
<path d="M163.994 3.39209V3.86297L164.08 3.90578C164.465 4.0342 164.594 4.37666 164.594 5.48965V12.3816C164.594 13.4946 164.465 13.8371 164.08 13.9655L163.994 14.0083V14.4792H167.162V14.0083L167.077 13.9655C166.691 13.8371 166.563 13.4946 166.563 12.3816V5.53246C166.563 4.41947 166.691 4.07701 167.077 3.94859L167.162 3.90578V3.39209H163.994Z" fill="#B22159"/>
<path d="M178.592 3.39209V3.86297L178.72 3.90578C179.405 4.11981 179.79 4.5907 179.79 6.43141V11.2258L173.54 3.4777L173.497 3.4349H171.528V3.94859L171.657 3.99139C172.213 4.11981 172.342 4.46227 172.342 5.57526V12.4672C172.342 13.5802 172.213 13.9227 171.828 14.0511L171.742 14.0939V14.5648H174.14V14.0939L174.011 14.0511C173.326 13.8371 172.941 13.3662 172.941 11.5255V5.7893L179.919 14.5648L179.961 14.6076H180.389V5.53246C180.389 4.41947 180.518 4.07701 180.903 3.94859L180.989 3.90578V3.39209H178.592Z" fill="#B22159"/>
<path d="M188.951 5.74666L190.706 9.94178H187.239L188.951 5.74666ZM188.18 4.03437L188.437 4.63367C188.566 4.89051 188.566 5.06174 188.48 5.31859L185.612 12.4674C185.184 13.5804 184.756 13.8372 184.413 13.9657L184.328 14.0085V14.4794H186.425V14.0085L186.297 13.9657C186.083 13.9229 186.04 13.8372 185.997 13.7944C185.912 13.5804 185.954 13.1951 186.211 12.5958L187.067 10.4983H190.963L191.862 12.6386L191.947 12.8527C192.161 13.3664 192.333 13.7516 192.247 13.9229C192.247 13.9229 192.204 14.0085 192.076 14.0513L191.99 14.0941V14.565H195.115V14.0941L195.029 14.0513C194.644 13.8801 194.259 13.3664 193.916 12.553L190.107 3.43506L190.064 3.30664L188.18 4.03437Z" fill="#B22159"/>
<path d="M198.625 3.39209V3.86297L198.711 3.90578C199.096 4.0342 199.225 4.37666 199.225 5.48965V12.3816C199.225 13.4946 199.096 13.8371 198.711 13.9655L198.625 14.0083V14.4792H206.288L206.416 12.2532L205.945 12.1676L205.902 12.2532C205.346 13.4518 204.661 13.8799 203.077 13.8799H201.793C201.365 13.8799 201.194 13.6659 201.194 13.2806V5.53246C201.194 4.41947 201.322 4.07701 201.707 3.94859L201.793 3.90578V3.39209H198.625Z" fill="#B22159"/>
<path d="M58.1316 8.69994C58.1316 9.94135 59.159 10.9687 60.486 10.9687C61.7702 10.9687 62.8404 9.94135 62.8404 8.69994C62.8404 7.45853 61.813 6.43115 60.486 6.43115C59.2018 6.47396 58.1316 7.45853 58.1316 8.69994Z" fill="#B22159"/>
<path d="M45.9316 14.2648L47.9864 16.7904C47.9008 11.0543 54.6643 9.12793 54.6643 9.12793C46.3597 10.2837 45.9316 14.2648 45.9316 14.2648Z" fill="#B22159"/>
<path d="M45.9316 2.8352C45.9316 2.8352 46.3597 6.81629 54.6215 7.97208C54.6215 7.97208 47.9008 6.04575 47.9864 0.30957L45.9316 2.8352Z" fill="#B22159"/>
<path d="M38.8684 8.57183L42.3786 10.2413L50.6404 8.57183L42.3786 6.90234L38.8684 8.57183Z" fill="#B22159"/>
<path d="M209.284 8.69994C209.284 9.94135 210.311 10.9687 211.638 10.9687C212.923 10.9687 213.993 9.94135 213.993 8.69994C213.993 7.45853 212.965 6.43115 211.638 6.43115C210.354 6.47396 209.284 7.45853 209.284 8.69994Z" fill="#B22159"/>
<path d="M222.041 16.7904L224.096 14.2648C224.096 14.2648 223.668 10.2837 215.406 9.12793C215.406 9.12793 222.127 11.0543 222.041 16.7904Z" fill="#B22159"/>
<path d="M215.406 7.97208C223.668 6.81629 224.096 2.8352 224.096 2.8352L222.041 0.30957C222.127 6.04575 215.406 7.97208 215.406 7.97208Z" fill="#B22159"/>
<path d="M219.387 8.57183L227.649 10.2413L231.159 8.57183L227.649 6.90234L219.387 8.57183Z" fill="#B22159"/>
<path d="M261.124 23.2972H262.108C262.536 23.2972 262.836 23.34 262.965 23.3828C263.136 23.4256 263.221 23.5541 263.307 23.6825C263.393 23.8109 263.435 23.9393 263.435 24.1106C263.435 24.3674 263.35 24.5386 263.179 24.7099C263.007 24.8811 262.665 24.9239 262.151 24.9239H261.081V23.2972H261.124ZM260.268 22.5695V27.9632H261.124V25.6944H261.637C261.937 25.6944 262.194 25.7372 262.322 25.8657C262.536 26.0369 262.836 26.465 263.221 27.1071L263.692 27.9632H264.762L264.12 26.893C263.821 26.3793 263.521 26.0369 263.307 25.8228C263.179 25.6944 263.05 25.6088 262.836 25.5232C263.307 25.4804 263.649 25.3092 263.949 25.0095C264.249 24.7099 264.377 24.3674 264.377 23.9821C264.377 23.6825 264.292 23.4256 264.12 23.2116C263.949 22.9548 263.735 22.7835 263.435 22.6979C263.136 22.6123 262.708 22.5267 262.066 22.5267H260.268V22.5695ZM260.353 28.7766C259.711 28.3913 259.155 27.8776 258.812 27.2355C258.47 26.5934 258.256 25.8657 258.256 25.1807C258.256 24.453 258.47 23.7681 258.812 23.0832C259.197 22.3983 259.711 21.8846 260.353 21.5421C261.038 21.1997 261.68 20.9856 262.408 20.9856C263.093 20.9856 263.778 21.1568 264.463 21.5421C265.148 21.8846 265.661 22.3983 266.047 23.0832C266.432 23.7681 266.603 24.453 266.603 25.1807C266.603 25.9085 266.432 26.5934 266.047 27.2355C265.704 27.8776 265.191 28.3913 264.506 28.7766C263.863 29.1618 263.136 29.3331 262.451 29.3331C261.723 29.3331 261.038 29.1618 260.353 28.7766ZM259.925 20.7288C259.112 21.1568 258.47 21.799 257.999 22.6123C257.528 23.4256 257.314 24.2818 257.314 25.1807C257.314 26.0797 257.528 26.893 257.999 27.7064C258.427 28.5197 259.069 29.1618 259.882 29.5899C260.696 30.0608 261.552 30.2748 262.408 30.2748C263.307 30.2748 264.12 30.0608 264.934 29.5899C265.747 29.1618 266.389 28.5197 266.817 27.7064C267.245 26.893 267.502 26.0369 267.502 25.1807C267.502 24.2818 267.288 23.4256 266.817 22.6123C266.346 21.799 265.747 21.1568 264.891 20.7288C264.078 20.3007 263.221 20.0867 262.365 20.0867C261.595 20.0439 260.739 20.3007 259.925 20.7288Z" fill="#B22159"/>
<path d="M3.16708 23.7249L2.86743 25.0519H31.2059L33.5603 20.9424C32.747 21.8841 11.9854 25.2231 3.16708 23.7249ZM33.5175 20.9424C33.5603 20.9424 33.5603 20.9424 33.5175 20.9424Z" fill="#B22159"/>
<path d="M11.7712 52.9202C10.5726 52.3209 9.50241 51.5075 8.60345 50.5229C7.23362 49.0675 6.5487 47.184 6.5487 45.0008C6.5487 40.9769 8.47503 37.5095 12.2849 34.6414C14.7249 32.8435 17.0793 31.9446 19.3909 31.9446C21.8309 31.9446 23.8001 32.6723 25.3411 34.0849C26.026 34.5986 26.5397 35.1551 26.9678 35.7116C27.1818 36.0113 27.3959 36.3537 27.6099 36.7818C27.8239 37.2099 28.0808 37.6807 28.3376 38.2372C28.3376 39.5643 28.0808 40.9341 27.5243 42.3896C27.0534 43.6738 26.3685 45.0436 25.4267 46.4991C24.5706 47.8689 23.5432 49.1103 22.3018 50.2661C21.1032 51.4219 19.819 52.278 18.5776 52.9202C17.2933 53.5623 16.1375 53.9047 15.0674 53.9047C14.0828 53.8191 12.9698 53.5195 11.7712 52.9202ZM7.19081 32.3298C5.73536 33.3144 4.49395 34.4274 3.46657 35.7116C2.482 36.9958 1.66866 38.4085 1.15497 39.9923C0.555672 41.5334 0.298828 43.1601 0.298828 44.8724C0.298828 47.0127 0.726902 48.8963 1.58305 50.5229C2.4392 52.1496 3.6378 53.391 5.17886 54.29C6.71993 55.1461 8.51784 55.5742 10.5726 55.5742L13.7403 55.3602L16.48 54.9749L19.4765 54.7609C20.8464 54.5896 22.259 54.29 23.6716 53.7335C24.8274 53.3054 26.2401 52.4921 27.9952 51.2935L28.0808 52.4065C28.0808 52.7917 28.1236 53.2198 28.1664 53.6479C28.2092 54.076 28.3376 54.7609 28.5089 55.7026L34.9728 55.0605C34.6303 53.6907 34.3735 52.4493 34.2451 51.2935C34.1166 50.1805 34.0738 48.5966 34.0738 46.6275C34.0738 40.5916 34.5019 35.1123 35.3152 30.1895L34.8015 30.4035C32.3615 31.3453 30.6064 31.8161 29.579 31.8161L28.4661 31.6021L25.9832 31.0028C25.3411 30.8316 24.7846 30.7031 24.3137 30.6175C23.8429 30.5319 23.2436 30.4891 22.5158 30.4891H19.819L17.4646 30.2751L14.8105 30.061C12.028 30.061 9.4596 30.7888 7.19081 32.3298Z" fill="#B22159"/>
<path d="M48.029 53.3906C47.344 53.1338 46.7875 52.7913 46.4451 52.4489C45.5033 51.3787 45.0324 49.4952 45.0324 46.7127C45.0324 45.2572 45.1181 44.1443 45.2465 43.3309C46.8732 43.0313 48.2858 42.9028 49.57 42.9028C51.2823 42.9028 52.6093 43.1597 53.5939 43.6306C54.3644 44.0586 54.9209 44.6579 55.3918 45.4285C55.8199 46.199 56.0767 47.0123 56.0767 47.8257C56.0767 48.8531 55.7771 49.8376 55.2206 50.7366C54.6641 51.6783 53.8936 52.4061 52.9946 52.9626C52.0956 53.5191 51.1111 53.7759 50.0409 53.7759C49.3988 53.8187 48.7567 53.6475 48.029 53.3906ZM45.2465 41.1477L45.1609 40.1204C45.1609 37.5091 45.803 35.3259 47.13 33.528C48.029 32.201 49.0991 31.088 50.4262 30.1891C51.7532 29.2901 52.909 28.862 53.8936 28.862C54.9209 28.862 55.8627 29.3329 56.6332 30.3175C57.4038 31.302 57.8318 32.3722 57.8318 33.6136C57.8318 35.8396 56.8473 37.6375 54.8781 39.1358C52.909 40.5912 50.4262 41.319 47.4725 41.319L45.2465 41.1477ZM55.6058 27.2782L53.4655 27.4922L52.1385 27.7062C51.1539 27.7918 50.2121 27.9631 49.2704 28.1343C48.3714 28.3055 47.4296 28.5196 46.5735 28.7336L45.6745 29.0333L45.5461 28.648L45.4605 28.2199C45.4605 27.8347 45.3749 27.4922 45.2465 27.2782L42.25 27.7062L39.6815 27.9203L38.7398 28.0059C39.1678 28.9048 39.4675 29.761 39.5531 30.4887C39.7671 31.6873 39.8527 33.8277 39.8527 36.9526C39.8527 38.194 39.8527 39.6067 39.8099 41.2762C39.7671 42.9456 39.7671 44.0158 39.7671 44.4439C39.7671 45.2144 39.7243 46.1134 39.6387 47.2692C39.6387 47.5688 39.5103 48.639 39.3819 50.5225C39.3819 51.079 39.3391 51.5927 39.2106 52.1492C39.0822 52.7057 38.8682 53.4763 38.5685 54.418L38.3545 55.1457L39.2963 55.2314L42.25 55.317L45.0324 55.2314C47.1728 55.0173 49.2276 54.9317 51.1967 54.9317C53.7651 54.9317 55.8627 54.6749 57.4894 54.1612C59.1161 53.6475 60.3575 52.8769 61.2136 51.764C62.0698 50.651 62.4978 49.3667 62.4978 47.9113C62.4978 46.1562 61.9413 44.7436 60.7855 43.7162C59.9722 42.9028 58.4739 42.3035 56.3764 41.9611C59.2873 40.8053 61.3848 39.6067 62.6691 38.3653C63.9533 37.1238 64.5526 35.5828 64.5526 33.8705C64.5526 32.5863 64.2529 31.4305 63.6536 30.4031C63.0543 29.3757 62.241 28.6052 61.1708 28.0487C60.1006 27.4922 58.902 27.2354 57.4894 27.2354L55.6058 27.2782Z" fill="#B22159"/>
<path d="M72.8143 20.7293L69.2185 20.815L68.1911 20.9006C68.4479 21.4571 68.662 21.9708 68.8332 22.3988C69.0044 22.8269 69.1328 23.2978 69.2613 23.7259C69.4753 24.4536 69.6465 25.3525 69.7321 26.4227C69.8606 27.4929 69.9034 28.8627 69.9034 30.5322V34.3421L69.8178 38.3232C69.8178 39.2649 69.775 40.2495 69.7321 41.1912C69.6893 42.1758 69.5181 44.0165 69.3041 46.7134C69.0044 49.8383 68.5764 52.6208 67.9771 55.0608H74.655C74.655 53.7338 74.7834 51.8931 74.9546 49.5387C75.1687 47.1843 75.4683 45.3008 75.8536 43.8881C76.2389 42.4755 76.881 41.0628 77.7371 39.6074C78.5077 38.4088 79.2782 37.3814 80.0915 36.4824C80.9905 35.4979 81.975 34.6417 83.0024 33.8712C84.0298 33.1435 85.0144 32.5442 85.9989 32.1589C86.9835 31.7736 87.8825 31.5596 88.7386 31.5596C89.98 31.5596 91.1786 31.9449 92.2916 32.7582C93.4046 33.5715 94.3464 34.5989 95.0313 35.8831C95.7162 37.1674 96.0587 38.4944 96.0587 39.907C96.0587 41.8762 95.2453 44.0165 93.6615 46.2853C92.0776 48.5541 90.0656 50.4376 87.6256 51.8931C86.2558 52.7064 84.9716 53.2629 83.8158 53.6054C83.0452 53.8194 82.2319 53.9478 81.4614 54.0763C80.648 54.2047 79.7919 54.2475 78.8073 54.2475V54.9752H101.624L103.892 51.5934C103.165 51.7647 102.351 51.8931 101.41 52.0215C100.468 52.1499 99.312 52.2784 97.9422 52.4068L92.5913 53.1345L90.4509 53.3485C91.6923 52.9205 92.6769 52.4924 93.4046 52.1071C95.6734 51.1654 97.4713 50.0096 98.7555 48.6397C100.125 47.2699 101.153 45.8144 101.88 44.1878C102.608 42.5611 102.993 40.8916 102.993 39.1793C102.993 37.1246 102.48 35.2838 101.452 33.6572C100.425 32.0305 99.0552 30.9175 97.3429 30.2754C96.3583 29.9329 95.1169 29.7617 93.6615 29.7617C92.8053 29.7617 91.6923 29.8473 90.3653 30.0613L87.9681 30.4038L85.1 30.7035C81.8466 31.1743 78.7217 32.3301 75.7252 34.2993V33.4859L75.8108 28.5631V26.5083C75.8108 25.6522 75.8108 25.0101 75.8536 24.582C75.8536 24.1539 75.8964 23.7687 75.9392 23.3834C75.9392 23.1694 76.0248 22.5701 76.2389 21.5427L76.4529 20.3013L72.8143 20.7293Z" fill="#B22159"/>
<path d="M118.618 52.92C117.42 52.3207 116.35 51.5074 115.451 50.5228C114.081 49.0673 113.396 47.1838 113.396 45.0006C113.396 40.9767 115.322 37.5093 119.132 34.6413C121.572 32.8433 123.926 31.9444 126.238 31.9444C128.678 31.9444 130.647 32.6721 132.188 34.0848C132.873 34.5985 133.387 35.1549 133.815 35.7114C134.029 36.0111 134.243 36.3536 134.457 36.7816C134.671 37.2097 134.928 37.6806 135.185 38.2371C135.185 39.5641 134.928 40.9339 134.371 42.3894C133.901 43.6736 133.216 45.0434 132.274 46.4989C131.418 47.8687 130.39 49.1101 129.149 50.2659C127.95 51.4217 126.666 52.2779 125.425 52.92C124.141 53.5621 122.985 53.9046 121.915 53.9046C120.93 53.8189 119.817 53.5193 118.618 52.92ZM113.995 32.3297C112.54 33.3142 111.298 34.4272 110.271 35.7114C109.286 36.9957 108.473 38.4083 107.959 39.9922C107.403 41.576 107.146 43.2027 107.146 44.8722C107.146 47.0126 107.574 48.8961 108.43 50.5228C109.286 52.1495 110.485 53.3909 112.026 54.2898C113.567 55.146 115.365 55.5741 117.42 55.5741L120.588 55.36L123.327 54.9747L126.324 54.7607C127.694 54.5895 129.106 54.2898 130.519 53.7333C131.675 53.3053 133.087 52.4919 134.842 51.2933L134.928 52.4063C134.928 52.7916 134.971 53.2196 135.014 53.6477C135.056 54.0758 135.185 54.7607 135.356 55.7025L141.82 55.0604C141.477 53.6905 141.221 52.4491 141.092 51.2933C140.964 50.1803 140.921 48.5965 140.921 46.6273C140.921 40.5915 141.349 35.1121 142.162 30.1893L141.649 30.4033C139.209 31.3451 137.454 31.816 136.426 31.816L135.313 31.6019L132.873 30.9598C132.231 30.7886 131.675 30.6602 131.204 30.5746C130.733 30.4889 130.134 30.4461 129.406 30.4461H126.709L124.355 30.2321L121.7 30.0181C118.832 30.0609 116.307 30.7886 113.995 32.3297Z" fill="#B22159"/>
<path d="M152.693 45.6857C152.693 45.1292 152.736 44.5727 152.821 44.0162C152.907 43.4597 153.035 42.732 153.249 41.8759C153.506 40.7629 153.891 39.7783 154.319 38.965C154.576 38.5369 154.876 38.066 155.218 37.5951C155.561 37.1243 155.903 36.6106 156.331 36.1397C157.53 34.5986 158.857 33.4428 160.27 32.5867C161.682 31.7305 162.967 31.3025 164.122 31.3025C165.064 31.3025 165.963 31.5593 166.862 32.073C167.761 32.5867 168.446 33.186 169.002 33.9565C169.516 34.727 169.773 35.4976 169.773 36.2681C169.773 37.5523 169.345 38.8365 168.489 40.078C167.633 41.3194 166.434 42.4324 164.936 43.4169C163.437 44.4015 161.725 45.172 159.799 45.7285C157.872 46.285 155.903 46.5847 153.849 46.5847H152.693V45.6857ZM166.348 29.9326L163.651 30.0182C161.383 30.2323 159.371 30.5747 157.573 31.0884C155.775 31.6021 154.191 32.2442 152.864 33.0147L152.778 32.6295L152.564 31.8161L152.222 30.5747L145.159 30.8744C145.844 31.7733 146.314 32.8435 146.571 33.9565C147.042 36.0969 147.299 39.0934 147.299 42.9889C147.299 47.4836 146.871 51.5503 145.972 55.1461H152.864L152.778 54.1188L152.693 50.737L152.607 48.7678L152.693 47.8261H153.378C154.063 47.8261 154.748 47.8689 155.39 47.9117C156.032 47.9545 156.545 48.0401 156.974 48.0829C157.872 48.2542 158.771 48.4682 159.67 48.8535C160.612 49.2815 161.597 49.7952 162.581 50.4801C163.095 50.8226 163.737 51.2507 164.422 51.7644C165.064 52.2352 165.792 52.7917 166.648 53.4767C167.504 54.1616 168.189 54.5896 168.703 54.7609C169.216 54.9321 169.901 55.0177 170.8 55.0177L173.668 54.9321L176.665 54.7181L178.762 54.504L180.774 54.29V53.177L179.833 53.0914C177.821 52.9202 176.28 52.6633 175.209 52.2781C174.31 51.8928 173.54 51.5075 172.855 51.1223C172.213 50.737 170.972 49.8808 169.131 48.5966C167.847 47.6977 166.648 47.0127 165.535 46.6275C168.061 45.8141 169.901 45.0864 171.1 44.3587C172.555 43.2885 173.711 42.0471 174.525 40.5916C175.338 39.1362 175.723 37.6379 175.723 36.1397C175.723 34.9411 175.466 33.8281 174.953 32.8863C174.439 31.9018 173.711 31.1312 172.769 30.6175C171.828 30.061 170.8 29.8042 169.687 29.8042L166.348 29.9326Z" fill="#B22159"/>
<path d="M195.757 52.92C194.559 52.3207 193.489 51.5074 192.59 50.5228C191.22 49.0673 190.535 47.1838 190.535 45.0006C190.535 40.9767 192.461 37.5093 196.271 34.6413C198.711 32.8433 201.065 31.9444 203.377 31.9444C205.817 31.9444 207.786 32.6721 209.327 34.0848C210.012 34.5985 210.526 35.1549 210.911 35.7114C211.125 36.0111 211.339 36.3536 211.596 36.7816C211.81 37.2097 212.067 37.6806 212.324 38.2371C212.324 39.5641 212.067 40.9339 211.51 42.3894C211.04 43.6736 210.355 45.0434 209.413 46.4989C208.557 47.8687 207.529 49.1101 206.288 50.2659C205.046 51.4217 203.805 52.2779 202.564 52.92C201.279 53.5621 200.124 53.9046 199.053 53.9046C198.069 53.8189 196.956 53.5193 195.757 52.92ZM191.177 32.3297C189.721 33.3142 188.48 34.4272 187.453 35.7114C186.468 36.9957 185.655 38.4083 185.098 39.9922C184.542 41.576 184.285 43.2027 184.285 44.8722C184.285 47.0126 184.713 48.8961 185.569 50.5228C186.425 52.1495 187.624 53.3909 189.165 54.2898C190.706 55.146 192.504 55.5741 194.559 55.5741L197.726 55.36L200.466 54.9747L203.463 54.7607C204.832 54.5895 206.245 54.2898 207.658 53.7333C208.814 53.3053 210.226 52.4919 211.981 51.2933L212.067 52.4063C212.067 52.7916 212.11 53.2196 212.152 53.6477C212.195 54.0758 212.324 54.7607 212.495 55.7025L218.959 55.0604C218.616 53.6905 218.36 52.4491 218.231 51.2933C218.103 50.1803 218.06 48.5965 218.06 46.6273C218.06 40.5915 218.488 35.1121 219.301 30.1893L218.788 30.4033C216.348 31.3451 214.593 31.816 213.565 31.816L212.452 31.6019L210.012 30.9598C209.37 30.7886 208.814 30.6602 208.343 30.5746C207.872 30.4889 207.272 30.4461 206.545 30.4461H203.848L201.493 30.2321L198.839 30.0181C196.014 30.0609 193.488 30.7886 191.177 32.3297Z" fill="#B22159"/>
<path d="M245.457 30.3605H243.316C242.332 30.3605 241.433 30.4033 240.577 30.4461C239.72 30.4889 238.95 30.5746 238.222 30.703C236.852 30.917 235.568 31.3023 234.412 31.7304C233.257 32.2012 231.93 32.8433 230.474 33.7423L230.174 32.0728L229.875 30.4461C229.447 30.5317 228.805 30.5317 228.034 30.5317H227.692H227.306H226.835C226.493 30.5746 226.193 30.6174 225.894 30.6174C225.637 30.6174 225.38 30.6174 225.123 30.6174H224.823H224.481H224.053H223.539H222.298C223.026 31.816 223.496 32.9718 223.753 34.0848C224.01 35.1977 224.139 36.7388 224.139 38.7079L224.053 40.4202L224.01 42.2182L223.625 46.6273C223.625 47.3978 223.582 48.0399 223.539 48.5536C223.496 49.0673 223.411 49.4954 223.325 49.8379L222.598 53.9474L222.383 54.9747H229.147L229.061 54.247V52.2779C229.061 49.6238 229.318 47.2694 229.789 45.2147C230.26 43.1599 231.031 41.148 232.058 39.2644C232.786 37.9802 233.556 36.91 234.37 35.9683C235.183 35.0265 236.039 34.2132 236.981 33.5711C238.822 32.244 240.791 31.6019 242.931 31.6019C245.457 31.6019 247.469 32.4153 249.01 34.0848C250.551 35.7542 251.321 37.6806 251.321 39.9066C251.321 41.7473 250.85 43.5452 249.909 45.3003C248.967 47.0554 247.683 48.5964 246.013 49.9663C244.344 51.3361 242.46 52.3635 240.363 53.134C238.265 53.9046 236.039 54.2898 233.77 54.2898V55.0175H255.944L257.914 51.7214C255.773 52.1495 254.189 52.4491 253.076 52.5347C251.963 52.6631 251.15 52.7488 250.508 52.7916C249.909 52.8344 249.052 52.8344 247.939 52.8344C249.095 52.3207 250.08 51.8926 250.893 51.4645C251.749 51.0365 252.434 50.6512 252.948 50.2659C254.061 49.4954 254.917 48.5536 255.516 47.5263C257.1 45.0006 257.871 42.261 257.871 39.3073C257.871 37.4665 257.485 35.8827 256.715 34.5128C255.944 33.143 254.874 32.0728 253.462 31.3451C252.049 30.6174 250.379 30.2749 248.41 30.2749L245.457 30.3605Z" fill="#B22159"/>
<path d="M90.4084 68.7156C90.4084 70.5563 91.7354 71.07 93.2765 71.7549L93.5333 71.8405C94.7319 72.3114 96.4014 72.9963 96.4014 74.2806C96.4014 75.4792 95.4168 76.0357 94.5179 76.0357C92.7628 76.0357 91.3501 74.9655 90.6652 73.0819L90.6224 72.9535L90.1943 73.0391L90.2799 75.522L90.3228 75.5648C91.2217 76.2497 92.72 76.6778 94.1326 76.6778C95.9733 76.6778 97.8997 75.4363 97.8997 73.296C97.8997 71.4125 96.0161 70.6847 94.4751 70.0854L94.261 69.9998C93.1052 69.5289 91.7782 69.0152 91.7782 67.8166C91.7782 66.7465 92.5915 66.0615 93.7901 66.0615C95.2456 66.0615 96.4442 66.9177 97.0435 68.3731L97.0863 68.5016L97.4716 68.3731L97.386 66.2328L97.3004 66.19C96.4442 65.7619 95.4168 65.5479 94.3466 65.5479C91.9922 65.5479 90.4084 66.7893 90.4084 68.7156Z" fill="#B22159"/>
<path d="M101.795 65.6769V66.1478L101.881 66.1906C102.266 66.319 102.395 66.6615 102.395 67.7745V74.538C102.395 75.6082 102.266 75.9935 101.881 76.1219L101.795 76.1647V76.6356H104.878V76.0791L104.792 76.0363C104.407 75.9079 104.278 75.5654 104.278 74.4524V67.6889C104.278 66.6187 104.407 66.2334 104.792 66.105L104.878 66.0622V65.5913H101.795V65.6769Z" fill="#B22159"/>
<path d="M115.751 65.6769V66.1478L115.836 66.1906C116.521 66.4046 116.906 66.8327 116.906 68.6734V73.3822L110.828 65.7625L110.785 65.7197H108.859V66.1906L108.944 66.2334C109.458 66.3618 109.629 66.7043 109.629 67.8173V74.5808C109.629 75.651 109.501 76.0363 109.115 76.1647L109.03 76.0791V76.55H111.341V76.0791L111.256 76.0363C110.571 75.8223 110.186 75.3942 110.186 73.5535V67.9457L117.035 76.5928L117.078 76.6356H117.463V67.6889C117.463 66.6187 117.591 66.2334 117.977 66.105L118.062 66.0622V65.5913H115.751V65.6769Z" fill="#B22159"/>
<path d="M122.171 71.2843C122.171 74.6661 124.397 76.678 128.164 76.678C130.176 76.678 131.332 76.2499 132.017 75.9503L132.102 75.9075L132.359 73.5103L131.931 73.4246L131.888 73.5531C131.332 75.1797 130.176 76.0787 128.635 76.0787C125.681 76.0787 124.097 73.339 124.097 70.5994C124.097 67.8169 125.596 66.1474 128.079 66.1474C129.662 66.1474 131.118 67.132 131.674 68.5446L131.717 68.673L132.145 68.5874L132.06 66.4042L132.017 66.3614C131.246 65.8477 129.662 65.5909 128.464 65.5909C124.825 65.5481 122.171 67.9453 122.171 71.2843Z" fill="#B22159"/>
<path d="M136.426 65.6768V66.1476L136.512 66.1904C136.897 66.3189 137.025 66.6613 137.025 67.7743V74.5379C137.025 75.6081 136.897 75.9933 136.512 76.1218L136.426 76.0789V76.5498H144.345L144.474 74.067L144.046 73.9814L144.003 74.1098C143.489 75.4796 142.633 76.0361 141.006 76.0361H139.551C139.123 76.0361 138.952 75.8221 138.952 75.4368V70.9421H140.279C142.119 70.9421 142.547 71.2845 142.762 72.0122L142.804 72.0979H143.275V69.2726H142.804L142.762 69.3582C142.547 70.0431 142.119 70.4284 140.279 70.4284H138.952V66.1904H140.578C142.291 66.1904 143.147 66.7041 143.703 68.0312L143.746 68.1596L144.174 68.074L144.003 65.6768H136.426Z" fill="#B22159"/>
<path d="M152.993 65.5057L150.039 67.5605L150.125 67.9029L151.409 67.3464V74.3668C151.409 75.4798 151.281 75.8223 150.81 75.9507L150.724 75.9935V76.4644H154.063V75.9935L153.978 75.9507C153.507 75.8223 153.335 75.4798 153.335 74.3668V65.4629H152.993V65.5057Z" fill="#B22159"/>
<path d="M157.958 68.4594C157.958 67.3464 158.215 66.0622 159.499 66.0622C161.04 66.0622 161.597 68.2882 161.597 70.1717C161.597 70.4713 161.597 70.985 161.511 71.5415C160.912 71.884 160.355 71.9268 160.098 71.9268C158.343 71.9268 157.958 70.0433 157.958 68.4594ZM156.16 69.4012C156.16 71.4987 157.359 72.8258 159.242 72.8258C159.97 72.8258 160.698 72.6117 161.34 72.1836C160.997 73.8103 160.056 75.9079 157.701 77.4489L157.573 77.5346L157.872 77.9626L158.001 77.877C161.854 75.4798 163.609 72.0552 163.609 69.7008C163.609 67.1752 162.11 65.4629 159.884 65.4629C158.429 65.4629 156.16 66.5331 156.16 69.4012Z" fill="#B22159"/>
<path d="M165.364 67.3466L165.278 67.4322L165.621 67.7747L165.707 67.6462C166.306 67.0041 166.991 66.6617 167.719 66.6617C168.575 66.6617 169.088 67.0897 169.088 67.8603C169.088 68.8448 168.446 69.6154 167.076 70.3003L166.948 70.3431L167.162 70.7712L167.29 70.6855C167.633 70.5143 167.975 70.4287 168.189 70.4287C169.217 70.4287 169.773 71.1136 169.773 72.4407C169.773 74.0673 168.232 76.6358 165.321 78.0912L165.193 78.134L165.407 78.6049L165.535 78.5193C168.617 76.8926 171.742 74.8379 171.742 72.141C171.742 70.3003 170.03 69.7866 169.046 69.7866H169.003C170.159 69.1445 170.886 68.4168 170.886 67.261C170.886 66.362 170.116 65.3774 168.746 65.3774C167.504 65.4631 166.477 66.0196 165.364 67.3466Z" fill="#B22159"/>
<path d="M179.105 64.6922C178.891 65.2487 178.463 65.5912 177.136 65.5912H174.696L173.84 70.5568L174.097 70.7281L174.311 70.6853C174.653 70.5996 175.124 70.514 175.723 70.514H175.766C176.494 70.514 177.05 70.6853 177.393 71.0277C177.693 71.3274 177.864 71.7554 177.864 72.2691C177.864 74.1527 176.237 76.3358 173.455 78.1337L173.326 78.2193L173.669 78.6474L173.797 78.5618C177.992 76.0362 179.833 73.9386 179.833 71.7126C179.833 70.4284 178.934 68.9302 176.451 68.9302C175.723 68.9302 175.167 68.973 174.61 69.1442L174.953 67.0466H176.708C178.591 67.0466 179.191 65.6768 179.533 64.8635L179.576 64.735L179.105 64.521V64.6922Z" fill="#B22159"/>
<path d="M185.012 71.5842L193.274 73.2537L196.784 71.5842L193.274 69.9575L185.012 71.5842Z" fill="#B22159"/>
<path d="M73.2852 71.5842L76.7526 73.2537L85.0572 71.5842L76.7526 69.9575L73.2852 71.5842Z" fill="#B22159"/>
</g>
</g>
<defs>
<clipPath id="clip0_2234_665">
<rect width="268" height="79" fill="white"/>
</clipPath>
<clipPath id="clip1_2234_665">
<rect width="267.882" height="77.3881" fill="white" transform="translate(0.059082 0.806152)"/>
</clipPath>
</defs>
</svg>
